<svg width="500" height="500" viewBox="0 0 500 500" fill="none" xmlns="http://www.w3.org/2000/svg">
<path fill-rule="evenodd" clip-rule="evenodd" d="M250 0C111.929 0 0 111.929 0 250C0 388.071 111.929 500 250 500C388.071 500 500 388.071 500 250C500 111.929 388.071 0 250 0ZM183.126 387.693C201.877 400.423 223.789 407 248.228 407C250.335 407 252.442 407 254.76 406.788C269.508 406.151 283.835 402.545 297.108 396.18C323.023 383.662 343.881 363.507 359.051 336.138C364.318 326.166 367.478 317.68 368.742 308.981C369.164 306.011 369.375 301.343 366.846 297.1C364.739 293.705 361.579 291.796 357.997 291.796C355.048 291.796 352.309 293.069 350.202 295.403C348.715 296.9 347.721 298.727 346.784 300.447C346.658 300.677 346.534 300.906 346.409 301.131C339.878 314.285 332.293 325.318 323.234 334.865C305.536 353.535 286.152 363.507 264.241 365.204C262.345 365.416 260.448 365.416 258.763 365.416C248.439 365.416 238.747 362.87 230.109 357.991C217.257 350.777 207.776 339.532 200.823 323.408C194.503 308.981 191.553 292.645 191.342 272.065C191.342 265.064 191.764 257.85 192.396 251.697C193.66 238.755 195.767 226.238 199.138 214.357C203.773 197.808 210.094 183.593 218.311 170.864C230.32 152.405 244.436 139.676 261.081 132.038C269.508 128.219 277.514 126.309 285.099 126.309C288.47 126.309 291.841 126.734 295.212 127.582C304.061 129.704 309.96 135.008 313.121 143.495C316.07 151.557 316.07 160.255 313.331 171.712C311.646 178.501 308.485 184.866 305.114 191.655L304.482 192.928C302.797 195.899 301.111 199.505 300.479 203.749C300.058 207.355 300.901 210.962 303.008 213.72C305.114 216.478 308.275 217.964 311.857 218.388C312.91 218.6 313.753 218.6 314.806 218.6C317.334 218.6 319.652 218.388 321.759 217.751C333.768 214.781 343.671 207.78 351.887 196.323C359.051 186.351 363.265 174.682 364.529 161.528C365.371 152.193 364.529 143.919 361.579 136.069C355.469 119.096 342.617 107.003 323.866 100.001C311.224 95.3338 297.951 93 284.467 93C273.3 93 261.502 94.4851 249.703 97.6676C222.103 104.881 197.874 120.369 177.437 143.282C156.79 166.62 142.673 194.626 135.721 227.086C131.296 247.242 130.032 267.822 131.718 287.977C133.192 304.95 136.353 319.801 141.62 333.38C150.68 356.718 164.585 374.964 183.126 387.693Z" fill="white"/>
</svg>
