<svg width="404" height="295" viewBox="0 0 404 295" fill="none" xmlns="http://www.w3.org/2000/svg">
<path d="M52.3356 210.12C43.3756 210.12 35.3756 208.253 28.3356 204.52C21.4023 200.68 15.9623 195.453 12.0156 188.84C8.06896 182.227 6.09563 174.707 6.09563 166.28C6.09563 157.747 8.06896 150.227 12.0156 143.72C15.9623 137.107 21.4023 131.933 28.3356 128.2C35.3756 124.467 43.3756 122.6 52.3356 122.6C60.6556 122.6 67.9623 124.307 74.2556 127.72C80.6556 131.027 85.509 135.933 88.8156 142.44L73.4556 151.4C70.8956 147.347 67.749 144.36 64.0156 142.44C60.389 140.52 56.4423 139.56 52.1756 139.56C47.269 139.56 42.8423 140.627 38.8956 142.76C34.949 144.893 31.8556 147.987 29.6156 152.04C27.3756 155.987 26.2556 160.733 26.2556 166.28C26.2556 171.827 27.3756 176.627 29.6156 180.68C31.8556 184.627 34.949 187.667 38.8956 189.8C42.8423 191.933 47.269 193 52.1756 193C56.4423 193 60.389 192.04 64.0156 190.12C67.749 188.2 70.8956 185.213 73.4556 181.16L88.8156 190.12C85.509 196.52 80.6556 201.48 74.2556 205C67.9623 208.413 60.6556 210.12 52.3356 210.12Z" fill="white"/>
<path d="M157.5 295V180L169.5 221.5L23 3H109L215.5 162.5H178L281.5 3H363L217.5 223.5L231 180V295H157.5Z" fill="white"/>
<path d="M186.253 281V282.5H187.753H258.659H260.159V281V193.905L387.247 3.83375L388.807 1.5H386H307.376H306.568L306.123 2.1759L225.341 125.033L142.207 2.15944L141.761 1.5H140.965H58H55.1675L56.7593 3.84295L186.253 194.446V281Z" stroke="#959595" stroke-width="3"/>
<path d="M344.164 161H399V176.371H344.164V161ZM345.843 207H326V127H404V143.5H345.843V207Z" fill="white"/>
</svg>
