<svg width="886" height="241" viewBox="0 0 886 241" fill="none" xmlns="http://www.w3.org/2000/svg">
<g filter="url(#filter0_d_154_26)">
<path d="M828.619 124.843C831.432 133.884 826.289 143.463 817.133 146.24C807.977 149.018 798.275 143.941 795.462 134.901L761.277 25.0357C758.464 15.9956 763.606 6.41588 772.763 3.63869C781.919 0.86151 791.621 5.93856 794.434 14.9786L828.619 124.843Z" fill="url(#paint0_linear_154_26)"/>
<path d="M870.356 92.286C876.989 99.2795 876.624 110.258 869.541 116.807C862.458 123.355 851.339 122.995 844.706 116.001L765.339 32.3197C758.706 25.3262 759.071 14.3479 766.154 7.79911C773.238 1.25028 784.357 1.61076 790.99 8.60426L870.356 92.286Z" fill="url(#paint1_linear_154_26)"/>
<path d="M864.7 88.7284C873.583 92.2464 877.895 102.208 874.332 110.978C870.769 119.748 860.679 124.005 851.797 120.487L743.751 77.693C734.868 74.1749 730.556 64.2136 734.119 55.4437C737.683 46.6739 747.772 42.4165 756.654 45.9345L864.7 88.7284Z" fill="url(#paint2_linear_154_26)"/>
<path d="M863.209 36.2479C872.886 35.5798 881.28 42.7837 881.956 52.3383C882.633 61.893 875.337 70.1801 865.66 70.8482L750.791 78.7788C741.114 79.447 732.72 72.243 732.044 62.6884C731.367 53.1338 738.663 44.8467 748.34 44.1785L863.209 36.2479Z" fill="url(#paint3_linear_154_26)"/>
<path d="M855.164 38.6693C863.565 33.8803 874.308 36.7223 879.158 45.017C884.009 53.3118 881.13 63.9182 872.729 68.7072L772.819 125.659C764.418 130.448 753.675 127.606 748.825 119.311C743.974 111.017 746.853 100.41 755.254 95.6213L855.164 38.6693Z" fill="url(#paint4_linear_154_26)"/>
<path d="M813.779 7.57827C819.188 -0.308649 830.048 -2.37289 838.037 2.96767C846.025 8.30822 848.115 19.0312 842.706 26.9181L778.609 120.378C773.199 128.265 762.339 130.329 754.351 124.989C746.363 119.648 744.272 108.925 749.681 101.038L813.779 7.57827Z" fill="#01EBBF"/>
</g>
<path d="M661.175 68H688.4L638.225 200.3C632.825 214.55 626.525 224.825 619.325 231.125C612.125 237.575 603.35 240.8 593 240.8C584.45 240.8 577.55 239.075 572.3 235.625L575.9 214.25C581.6 216.8 586.625 218.075 590.975 218.075C600.875 218.075 608.825 211.175 614.825 197.375L618.65 188.375L566 68H594.575L630.125 155.525L661.175 68Z" fill="white"/>
<path d="M478 189.425V68.15H501.625V85.475C508.825 71.825 520.3 65 536.05 65C541.15 65 545.95 65.675 550.45 67.025L548.2 91.1C543.85 89.6 539.425 88.85 534.925 88.85C525.475 88.85 517.75 92.075 511.75 98.525C505.75 104.975 502.75 114.575 502.75 127.325V189.425H478Z" fill="white"/>
<path d="M455.275 125.2C455.275 128.65 454.975 132.625 454.375 137.125H359.65C361.45 146.575 365.65 154.225 372.25 160.075C379 165.925 388.225 168.85 399.925 168.85C406.825 168.85 414.025 167.65 421.525 165.25C429.175 162.85 435.7 159.7 441.1 155.8L451.45 174.025C445.3 178.675 437.575 182.65 428.275 185.95C418.975 189.25 409.225 190.9 399.025 190.9C388.075 190.9 378.325 189.1 369.775 185.5C361.225 181.9 354.4 177.1 349.3 171.1C344.2 164.95 340.375 158.2 337.825 150.85C335.275 143.35 334 135.475 334 127.225C334 108.925 339.7 93.85 351.1 82C362.65 70 377.575 64 395.875 64C413.275 64 427.525 69.475 438.625 80.425C449.725 91.375 455.275 106.3 455.275 125.2ZM395.875 85.375C386.575 85.375 378.625 88.3 372.025 94.15C365.575 99.85 361.45 107.425 359.65 116.875H430.3C429.25 107.275 425.5 99.625 419.05 93.925C412.75 88.225 405.025 85.375 395.875 85.375Z" fill="white"/>
<path d="M254.7 65.35C271.95 65.35 286.35 71.5 297.9 83.8C309.45 96.1 315.225 111.175 315.225 129.025C315.225 146.875 309.45 161.95 297.9 174.25C286.35 186.4 271.875 192.475 254.475 192.475C237.825 192.475 224.175 185.725 213.525 172.225V189.55H189V19H213.75V85.825C224.55 72.175 238.2 65.35 254.7 65.35ZM251.325 169.3C262.725 169.3 271.95 165.4 279 157.6C286.2 149.8 289.8 140.2 289.8 128.8C289.8 117.4 286.2 107.8 279 100C271.95 92.2 262.725 88.3 251.325 88.3C239.775 88.3 230.4 92.275 223.2 100.225C216.15 108.025 212.625 117.55 212.625 128.8C212.625 140.2 216.15 149.8 223.2 157.6C230.4 165.4 239.775 169.3 251.325 169.3Z" fill="white"/>
<path d="M153.8 46.575C150.65 49.725 146.675 51.3 141.875 51.3C137.075 51.3 133.025 49.725 129.725 46.575C126.575 43.275 125 39.225 125 34.425C125 29.775 126.575 25.875 129.725 22.725C133.025 19.575 137.075 18 141.875 18C146.675 18 150.65 19.575 153.8 22.725C156.95 25.875 158.525 29.775 158.525 34.425C158.525 39.225 156.95 43.275 153.8 46.575ZM153.8 190H129.05L129.275 67.275H154.025L153.8 190Z" fill="white"/>
<path d="M25.7429 92.5H95L95 118H25.7429V92.5ZM25.7429 190H0V21H106V47.5H25.7429V190Z" fill="white"/>
<defs>
<filter id="filter0_d_154_26" x="728" y="0" width="158" height="155" filterUnits="userSpaceOnUse" color-interpolation-filters="sRGB">
<feFlood flood-opacity="0" result="BackgroundImageFix"/>
<feColorMatrix in="SourceAlpha" type="matrix" values="0 0 0 0 0 0 0 0 0 0 0 0 0 0 0 0 0 0 127 0" result="hardAlpha"/>
<feOffset dy="4"/>
<feGaussianBlur stdDeviation="2"/>
<feComposite in2="hardAlpha" operator="out"/>
<feColorMatrix type="matrix" values="0 0 0 0 0 0 0 0 0 0 0 0 0 0 0 0 0 0 0.25 0"/>
<feBlend mode="normal" in2="BackgroundImageFix" result="effect1_dropShadow_154_26"/>
<feBlend mode="normal" in="SourceGraphic" in2="effect1_dropShadow_154_26" result="shape"/>
</filter>
<linearGradient id="paint0_linear_154_26" x1="807" y1="0" x2="807" y2="147" gradientUnits="userSpaceOnUse">
<stop stop-color="#2A2B39"/>
<stop offset="1" stop-color="#1D4F52"/>
</linearGradient>
<linearGradient id="paint1_linear_154_26" x1="807" y1="0" x2="807" y2="147" gradientUnits="userSpaceOnUse">
<stop stop-color="#166F69"/>
<stop offset="1" stop-color="#1D4F52"/>
</linearGradient>
<linearGradient id="paint2_linear_154_26" x1="807" y1="0" x2="807" y2="147" gradientUnits="userSpaceOnUse">
<stop stop-color="#177069"/>
<stop offset="1" stop-color="#119281"/>
</linearGradient>
<linearGradient id="paint3_linear_154_26" x1="807" y1="0" x2="807" y2="147" gradientUnits="userSpaceOnUse">
<stop stop-color="#0ABA9D"/>
<stop offset="1" stop-color="#119180"/>
</linearGradient>
<linearGradient id="paint4_linear_154_26" x1="807" y1="0" x2="807" y2="147" gradientUnits="userSpaceOnUse">
<stop stop-color="#0AB59A"/>
<stop offset="1" stop-color="#01EBBF"/>
</linearGradient>
</defs>
</svg>
