<svg width="800" height="277" viewBox="0 0 800 277" fill="none" xmlns="http://www.w3.org/2000/svg">
<g clip-path="url(#clip0_156_15)">
<path d="M98.5274 16H105.641C130.339 16.5369 154.635 26.4698 172.084 44.0537C165.641 50.6309 159.064 56.9396 152.756 63.5168C142.957 54.6577 131.145 47.8121 118.259 45.396C99.1985 41.3691 78.6616 44.9933 62.6885 55.8658C45.2388 67.2752 33.4267 86.604 30.8764 107.275C28.0576 127.678 33.8294 149.154 47.118 164.993C59.8697 180.43 79.3328 190.094 99.467 190.765C118.259 191.839 137.856 186.067 151.548 172.913C162.286 163.651 167.252 149.557 168.863 135.866C146.581 135.866 124.299 136 102.017 135.866V108.215H195.843C200.675 137.879 193.695 171.302 171.145 192.51C156.111 207.544 135.306 216.403 114.098 218.148C93.561 220.161 72.3529 216.268 54.0979 206.336C32.2187 194.658 14.769 174.926 6.1784 151.705C-1.87529 130.362 -2.00952 106.201 5.50726 84.7248C12.3529 65.1275 25.5073 47.8121 42.42 35.7315C58.6616 23.7852 78.3932 17.2081 98.5274 16Z" fill="white"/>
<path d="M636.782 22.9799H665.507V214.658C655.977 214.658 646.313 214.792 636.782 214.524C636.917 150.765 636.782 86.8725 636.782 22.9799Z" fill="white"/>
<path d="M259.735 89.4228C277.454 86.0671 296.648 89.8255 311.279 100.43C324.568 109.826 333.829 124.591 336.648 140.698C340.272 159.356 335.709 179.758 323.628 194.523C310.608 211.034 289.266 219.893 268.46 218.55C249.4 217.477 230.876 207.946 219.601 192.376C206.85 175.195 203.762 151.57 210.742 131.436C217.722 109.826 237.454 93.3154 259.735 89.4228ZM263.762 114.926C256.514 116.805 249.803 120.966 244.97 126.872C231.95 142.443 232.756 167.812 247.118 182.309C255.306 190.631 267.655 194.523 279.064 192.242C289.668 190.362 298.93 183.248 304.031 173.852C312.89 157.879 310.34 135.866 296.782 123.383C288.058 115.329 275.306 111.973 263.762 114.926Z" fill="white"/>
<path d="M402.017 89.4228C422.286 85.5302 444.433 91.1678 459.601 105.396C484.299 127.544 486.984 169.02 465.91 194.523C453.158 210.631 432.487 219.49 412.084 218.55C392.621 218.013 373.427 208.349 361.883 192.376C348.863 174.792 346.044 150.631 353.427 130.094C360.809 109.154 380.138 93.1812 402.017 89.4228ZM406.044 114.926C398.796 116.805 392.084 120.966 387.252 126.738C374.366 142.04 374.903 167.007 388.729 181.638C396.917 190.362 409.668 194.658 421.48 192.242C431.95 190.228 441.346 183.248 446.447 173.852C455.172 157.745 452.621 135.732 438.93 123.248C430.205 115.195 417.454 111.973 406.044 114.926Z" fill="white"/>
<path d="M522.688 97.2081C538.125 87.5436 558.662 84.8591 575.306 93.1812C580.541 95.4631 584.836 99.3557 588.997 103.248C589.131 99.6242 588.997 95.8658 589.131 92.1074C598.125 92.2416 607.118 92.1074 616.246 92.2416V210.631C616.111 228.483 611.548 247.409 598.662 260.43C584.568 274.792 562.957 279.221 543.494 276.268C522.688 273.181 504.568 258.013 496.514 238.819C504.568 234.926 513.024 231.839 521.346 228.215C526.044 239.222 535.574 248.617 547.521 250.765C559.467 252.913 573.293 249.96 581.078 240.027C589.4 229.826 589.4 215.866 588.997 203.383C582.823 209.423 575.709 214.792 567.118 216.805C548.46 222.04 527.923 215.597 513.561 202.98C499.064 190.362 490.474 170.899 491.279 151.57C491.682 129.691 504.031 108.617 522.688 97.2081ZM550.474 114.389C542.286 115.732 534.635 120.295 529.4 126.604C516.782 141.638 516.782 165.664 529.534 180.43C536.782 189.154 548.46 193.987 559.735 192.779C570.34 191.705 580.138 184.993 585.373 175.732C594.232 160.027 592.756 138.685 580.809 124.993C573.427 116.537 561.615 112.376 550.474 114.389Z" fill="white"/>
<path d="M700.004 104.054C716.111 89.0201 740.943 83.9195 761.615 91.8389C781.212 99.2215 793.695 117.879 800.004 137.074C770.876 149.154 741.883 161.101 712.756 173.181C716.782 180.832 722.957 187.812 731.279 190.631C742.957 194.792 756.917 193.315 766.715 185.53C770.608 182.577 773.695 178.685 776.648 174.926C784.031 179.893 791.413 184.725 798.796 189.691C788.326 205.396 770.742 216.403 751.816 218.148C730.876 220.698 708.594 212.644 695.037 196.268C672.756 170.497 674.903 127.275 700.004 104.054ZM714.366 128.886C709.803 135.463 707.923 143.517 708.058 151.436C727.521 143.383 746.984 135.329 766.447 127.141C763.225 119.624 755.44 115.06 747.521 113.852C734.769 111.57 721.48 118.416 714.366 128.886Z" fill="white"/>
</g>
<defs>
<clipPath id="clip0_156_15">
<rect width="800" height="277" fill="white"/>
</clipPath>
</defs>
</svg>
