<svg width="169" height="50" viewBox="0 0 169 50" fill="none" xmlns="http://www.w3.org/2000/svg">
<path fill-rule="evenodd" clip-rule="evenodd" d="M15.3506 31.4405C6.87268 31.4405 0 24.4022 0 15.7203C0 7.03819 6.87268 0 15.3506 0H36.3412C38.7486 0 40.3073 2.60355 39.2152 4.80074L33.7547 15.7862L39.943 32.2991C40.2229 33.122 40.3759 34.0121 40.3759 34.9413C40.3759 39.1363 37.2572 42.5372 33.4101 42.5372H22.9614L19.6413 48.4738C19.1815 49.2958 18.3274 49.8028 17.4025 49.8028H4.41598C2.2567 49.8028 0.888447 47.4313 1.93017 45.4945L8.70726 32.8936L10.6745 33.455L12.6417 34.0165L7.27147 43.8055C6.7884 44.6862 7.40982 45.7736 8.39612 45.7736H16.447L19.7689 39.7799C20.2272 38.9529 21.0842 38.4419 22.0127 38.4419H33.281C34.9909 38.4419 36.3769 36.8746 36.3769 34.9413C36.3769 33.0078 34.9909 31.4405 33.281 31.4405H15.3506ZM3.8699 15.7862C3.8699 22.1702 8.89446 27.3453 15.0926 27.3453L33.7547 27.3544L30.4432 17.8339H21.2844L17.6725 24.5711H13.0931L18.5419 14.2793C18.7613 13.8648 19.1849 13.6066 19.6453 13.6066H30.4432L35.0226 4.2273H15.0926C8.89446 4.2273 3.8699 9.40243 3.8699 15.7862Z" fill="url(#paint0_linear_392_55)"/>
<path d="M169 8.72335V31.1189H163.986V28.267C163.144 29.2736 162.09 30.0564 160.827 30.6156C159.563 31.1468 158.2 31.4125 156.74 31.4125C153.734 31.4125 151.361 30.5877 149.62 28.938C147.906 27.2605 147.05 24.7861 147.05 21.5148V8.72335H152.316V20.8018C152.316 22.8149 152.765 24.3247 153.664 25.3313C154.591 26.3099 155.897 26.7991 157.582 26.7991C159.464 26.7991 160.953 26.226 162.048 25.0796C163.172 23.9053 163.734 22.2278 163.734 20.0469V8.72335H169Z" fill="white"/>
<path d="M140.329 0V31.1189H135.273V28.2251C134.402 29.2875 133.321 30.0844 132.029 30.6156C130.765 31.1468 129.36 31.4125 127.816 31.4125C125.653 31.4125 123.701 30.9371 121.959 29.9865C120.246 29.0359 118.898 27.6938 117.915 25.9604C116.932 24.1989 116.44 22.1858 116.44 19.9211C116.44 17.6564 116.932 15.6573 117.915 13.9238C118.898 12.1903 120.246 10.8483 121.959 9.89765C123.701 8.94703 125.653 8.47172 127.816 8.47172C129.304 8.47172 130.667 8.72335 131.902 9.22662C133.138 9.72989 134.192 10.4848 135.062 11.4913V0H140.329ZM128.448 26.925C129.712 26.925 130.849 26.6454 131.86 26.0862C132.871 25.499 133.672 24.6742 134.262 23.6118C134.852 22.5493 135.147 21.3191 135.147 19.9211C135.147 18.5231 134.852 17.2929 134.262 16.2305C133.672 15.168 132.871 14.3572 131.86 13.798C130.849 13.2108 129.712 12.9173 128.448 12.9173C127.184 12.9173 126.046 13.2108 125.035 13.798C124.024 14.3572 123.223 15.168 122.633 16.2305C122.044 17.2929 121.749 18.5231 121.749 19.9211C121.749 21.3191 122.044 22.5493 122.633 23.6118C123.223 24.6742 124.024 25.499 125.035 26.0862C126.046 26.6454 127.184 26.925 128.448 26.925Z" fill="white"/>
<path d="M102.828 26.9669C105.271 26.9669 107.308 26.1561 108.937 24.5344L111.718 27.7637C110.734 28.966 109.47 29.8747 107.926 30.4898C106.381 31.1049 104.639 31.4125 102.701 31.4125C100.23 31.4125 98.0529 30.9232 96.171 29.9446C94.2892 28.966 92.8286 27.61 91.7894 25.8765C90.7782 24.115 90.2726 22.1299 90.2726 19.9211C90.2726 17.7403 90.7642 15.7831 91.7472 14.0496C92.7584 12.2882 94.1347 10.9182 95.8761 9.93959C97.6456 8.96101 99.6398 8.47172 101.859 8.47172C103.965 8.47172 105.875 8.93305 107.589 9.85571C109.33 10.7504 110.706 12.0505 111.718 13.7561C112.729 15.4336 113.234 17.4048 113.234 19.6695L96.0025 23.0246C96.5362 24.3108 97.3928 25.2893 98.5725 25.9604C99.7522 26.6314 101.171 26.9669 102.828 26.9669ZM101.859 12.6656C99.9207 12.6656 98.3478 13.2947 97.1401 14.5529C95.9604 15.8111 95.3705 17.5026 95.3705 19.6275V19.6695L108.094 17.237C107.729 15.867 106.985 14.7626 105.861 13.9238C104.766 13.085 103.432 12.6656 101.859 12.6656Z" fill="white"/>
<path d="M88.514 29.9026C87.8961 30.4059 87.1377 30.7834 86.2389 31.035C85.3682 31.2866 84.4413 31.4125 83.4582 31.4125C80.9865 31.4125 79.0766 30.7694 77.7284 29.4833C76.3802 28.1971 75.7061 26.3238 75.7061 23.8634V3.77453H80.9725V8.89111H86.9973V13.085H80.9725V23.7376C80.9725 24.828 81.2393 25.6668 81.773 26.2539C82.3347 26.8131 83.1071 27.0927 84.0902 27.0927C85.2699 27.0927 86.2529 26.7852 87.0394 26.1701L88.514 29.9026Z" fill="white"/>
<path d="M59.026 31.5383C56.7509 31.5383 54.5461 31.2167 52.4114 30.5737C50.3048 29.9306 48.6336 29.0778 47.3978 28.0154L49.2937 23.7795C50.5014 24.7301 51.976 25.513 53.7175 26.1281C55.487 26.7153 57.2565 27.0088 59.026 27.0088C61.2168 27.0088 62.8459 26.6594 63.9133 25.9604C65.0087 25.2614 65.5564 24.3387 65.5564 23.1924C65.5564 22.3536 65.2474 21.6686 64.6295 21.1374C64.0396 20.5782 63.2813 20.1448 62.3544 19.8372C61.4275 19.5297 60.1636 19.1802 58.5626 18.7888C56.3156 18.2575 54.4899 17.7263 53.0855 17.1951C51.7092 16.6638 50.5155 15.839 49.5043 14.7207C48.5213 13.5743 48.0297 12.0366 48.0297 10.1073C48.0297 8.4857 48.4651 7.01783 49.3358 5.70373C50.2346 4.36168 51.5688 3.29922 53.3383 2.51635C55.1359 1.73349 57.3267 1.34206 59.9108 1.34206C61.7084 1.34206 63.4779 1.56573 65.2193 2.01308C66.9608 2.46044 68.4634 3.1035 69.7274 3.94229L68 8.17814C66.708 7.42324 65.3598 6.85007 63.9554 6.45864C62.551 6.06721 61.1888 5.87149 59.8686 5.87149C57.7059 5.87149 56.0909 6.23496 55.0235 6.96191C53.9843 7.68885 53.4647 8.65346 53.4647 9.85571C53.4647 10.6945 53.7596 11.3795 54.3494 11.9107C54.9674 12.442 55.7398 12.8614 56.6667 13.1689C57.5936 13.4765 58.8575 13.826 60.4585 14.2174C62.6493 14.7207 64.4469 15.2519 65.8513 15.8111C67.2557 16.3423 68.4494 17.1671 69.4325 18.2855C70.4436 19.4039 70.9492 20.9137 70.9492 22.8149C70.9492 24.4366 70.4998 25.9044 69.601 27.2185C68.7303 28.5326 67.3961 29.5811 65.5985 30.364C63.8009 31.1468 61.6101 31.5383 59.026 31.5383Z" fill="white"/>
<path d="M165.39 41.2722C166.469 41.2722 167.335 41.586 167.986 42.2136C168.638 42.8412 168.964 43.772 168.964 45.0059V49.8883H166.961V45.2612C166.961 44.5166 166.784 43.9581 166.432 43.5858C166.079 43.2029 165.577 43.0114 164.925 43.0114C164.188 43.0114 163.605 43.2348 163.178 43.6815C162.75 44.1177 162.537 44.7506 162.537 45.5803V49.8883H160.533V41.368H162.441V42.4689C162.772 42.0753 163.189 41.7775 163.691 41.5754C164.193 41.3733 164.759 41.2722 165.39 41.2722Z" fill="white"/>
<path d="M151.324 50C150.458 50 149.678 49.8138 148.984 49.4415C148.289 49.0692 147.744 48.5533 147.349 47.8938C146.964 47.2237 146.772 46.4685 146.772 45.6281C146.772 44.7878 146.964 44.0379 147.349 43.3784C147.744 42.7189 148.289 42.203 148.984 41.8307C149.678 41.4584 150.458 41.2722 151.324 41.2722C152.2 41.2722 152.986 41.4584 153.68 41.8307C154.375 42.203 154.914 42.7189 155.299 43.3784C155.695 44.0379 155.892 44.7878 155.892 45.6281C155.892 46.4685 155.695 47.2237 155.299 47.8938C154.914 48.5533 154.375 49.0692 153.68 49.4415C152.986 49.8138 152.2 50 151.324 50ZM151.324 48.2927C152.061 48.2927 152.67 48.0481 153.151 47.5588C153.632 47.0695 153.873 46.4259 153.873 45.6281C153.873 44.8304 153.632 44.1868 153.151 43.6975C152.67 43.2082 152.061 42.9635 151.324 42.9635C150.587 42.9635 149.978 43.2082 149.497 43.6975C149.027 44.1868 148.791 44.8304 148.791 45.6281C148.791 46.4259 149.027 47.0695 149.497 47.5588C149.978 48.0481 150.587 48.2927 151.324 48.2927Z" fill="white"/>
<path d="M140.119 41.368H142.123V49.8883H140.119V41.368ZM141.129 39.9639C140.765 39.9639 140.461 39.8522 140.215 39.6288C139.969 39.3948 139.846 39.1076 139.846 38.7672C139.846 38.4268 139.969 38.1449 140.215 37.9216C140.461 37.6875 140.765 37.5705 141.129 37.5705C141.492 37.5705 141.797 37.6822 142.042 37.9056C142.288 38.1183 142.411 38.3896 142.411 38.7193C142.411 39.0704 142.288 39.3682 142.042 39.6129C141.807 39.8469 141.503 39.9639 141.129 39.9639Z" fill="white"/>
<path d="M135.738 49.4256C135.503 49.6171 135.214 49.7607 134.872 49.8564C134.541 49.9521 134.189 50 133.815 50C132.874 50 132.148 49.7553 131.635 49.266C131.122 48.7767 130.865 48.064 130.865 47.128V39.4852H132.869V41.4318H135.161V43.0274H132.869V47.0801C132.869 47.495 132.97 47.8141 133.173 48.0375C133.387 48.2502 133.681 48.3566 134.055 48.3566C134.504 48.3566 134.878 48.2396 135.177 48.0055L135.738 49.4256Z" fill="white"/>
<path d="M125.583 41.368V49.8883H123.676V48.7874C123.344 49.1916 122.933 49.4947 122.441 49.6968C121.96 49.8989 121.426 50 120.838 50C120.005 50 119.257 49.8192 118.594 49.4575C117.943 49.0958 117.43 48.5853 117.056 47.9258C116.692 47.2663 116.511 46.5004 116.511 45.6281C116.511 44.7559 116.692 43.9953 117.056 43.3465C117.43 42.687 117.943 42.1764 118.594 41.8147C119.257 41.4531 120.005 41.2722 120.838 41.2722C121.394 41.2722 121.902 41.368 122.361 41.5594C122.831 41.7509 123.237 42.0328 123.579 42.4051V41.368H125.583ZM121.063 48.2927C121.8 48.2927 122.409 48.0481 122.89 47.5588C123.371 47.0695 123.611 46.4259 123.611 45.6281C123.611 44.8304 123.371 44.1868 122.89 43.6975C122.409 43.2082 121.8 42.9635 121.063 42.9635C120.326 42.9635 119.716 43.2082 119.236 43.6975C118.765 44.1868 118.53 44.8304 118.53 45.6281C118.53 46.4259 118.765 47.0695 119.236 47.5588C119.716 48.0481 120.326 48.2927 121.063 48.2927Z" fill="white"/>
<path d="M109.858 41.368H111.861V49.8883H109.858V41.368ZM110.868 39.9639C110.504 39.9639 110.2 39.8522 109.954 39.6288C109.708 39.3948 109.585 39.1076 109.585 38.7672C109.585 38.4268 109.708 38.1449 109.954 37.9216C110.2 37.6875 110.504 37.5705 110.868 37.5705C111.231 37.5705 111.535 37.6822 111.781 37.9056C112.027 38.1183 112.15 38.3896 112.15 38.7193C112.15 39.0704 112.027 39.3682 111.781 39.6129C111.546 39.8469 111.242 39.9639 110.868 39.9639Z" fill="white"/>
<path d="M101.746 50C100.859 50 100.063 49.8138 99.358 49.4415C98.6527 49.0692 98.1024 48.5533 97.707 47.8938C97.3116 47.2237 97.114 46.4685 97.114 45.6281C97.114 44.7878 97.3116 44.0379 97.707 43.3784C98.1024 42.7189 98.6474 42.203 99.342 41.8307C100.047 41.4584 100.849 41.2722 101.746 41.2722C102.59 41.2722 103.328 41.4424 103.958 41.7828C104.599 42.1232 105.08 42.6125 105.401 43.2507L103.862 44.1443C103.616 43.7507 103.306 43.4582 102.932 43.2667C102.569 43.0646 102.168 42.9635 101.73 42.9635C100.982 42.9635 100.362 43.2082 99.8709 43.6975C99.3794 44.1762 99.1336 44.8197 99.1336 45.6281C99.1336 46.4366 99.374 47.0854 99.8549 47.5747C100.346 48.0534 100.972 48.2927 101.73 48.2927C102.168 48.2927 102.569 48.197 102.932 48.0055C103.306 47.8034 103.616 47.5056 103.862 47.112L105.401 48.0055C105.07 48.6438 104.583 49.1384 103.942 49.4894C103.312 49.8298 102.58 50 101.746 50Z" fill="white"/>
<path d="M88.6102 50C87.7446 50 86.9645 49.8138 86.27 49.4415C85.5754 49.0692 85.0304 48.5533 84.635 47.8938C84.2503 47.2237 84.058 46.4685 84.058 45.6281C84.058 44.7878 84.2503 44.0379 84.635 43.3784C85.0304 42.7189 85.5754 42.203 86.27 41.8307C86.9645 41.4584 87.7446 41.2722 88.6102 41.2722C89.4864 41.2722 90.2718 41.4584 90.9664 41.8307C91.661 42.203 92.2006 42.7189 92.5853 43.3784C92.9807 44.0379 93.1784 44.7878 93.1784 45.6281C93.1784 46.4685 92.9807 47.2237 92.5853 47.8938C92.2006 48.5533 91.661 49.0692 90.9664 49.4415C90.2718 49.8138 89.4864 50 88.6102 50ZM88.6102 48.2927C89.3475 48.2927 89.9566 48.0481 90.4374 47.5588C90.9183 47.0695 91.1587 46.4259 91.1587 45.6281C91.1587 44.8304 90.9183 44.1868 90.4374 43.6975C89.9566 43.2082 89.3475 42.9635 88.6102 42.9635C87.8728 42.9635 87.2637 43.2082 86.7829 43.6975C86.3127 44.1868 86.0776 44.8304 86.0776 45.6281C86.0776 46.4259 86.3127 47.0695 86.7829 47.5588C87.2637 48.0481 87.8728 48.2927 88.6102 48.2927Z" fill="white"/>
<path d="M76.434 50C75.7394 50 75.0608 49.9096 74.3983 49.7287C73.7358 49.5479 73.2068 49.3192 72.8115 49.0427L73.5808 47.5269C73.9655 47.7822 74.425 47.9896 74.9593 48.1491C75.5043 48.2981 76.0386 48.3725 76.5622 48.3725C77.759 48.3725 78.3574 48.0587 78.3574 47.4311C78.3574 47.1333 78.2025 46.9259 77.8926 46.8089C77.5934 46.6918 77.1072 46.5802 76.434 46.4738C75.7287 46.3674 75.1517 46.2451 74.7029 46.1068C74.2647 45.9685 73.88 45.7292 73.5488 45.3888C73.2282 45.0378 73.0679 44.5538 73.0679 43.9368C73.0679 43.1284 73.4045 42.4849 74.0777 42.0062C74.7616 41.5169 75.6806 41.2722 76.8347 41.2722C77.4224 41.2722 78.0101 41.3414 78.5979 41.4797C79.1856 41.6073 79.6664 41.7828 80.0404 42.0062L79.2711 43.522C78.5444 43.0965 77.727 42.8838 76.8187 42.8838C76.2309 42.8838 75.7821 42.9742 75.4722 43.155C75.173 43.3252 75.0234 43.5539 75.0234 43.8411C75.0234 44.1602 75.1837 44.3889 75.5043 44.5272C75.8356 44.6548 76.3431 44.7772 77.027 44.8942C77.7109 45.0005 78.2719 45.1229 78.7101 45.2612C79.1482 45.3994 79.5222 45.6335 79.8321 45.9632C80.1526 46.293 80.3129 46.761 80.3129 47.3673C80.3129 48.1651 79.9656 48.8033 79.2711 49.282C78.5765 49.7607 77.6308 50 76.434 50Z" fill="white"/>
<path d="M65.4598 50C64.7653 50 64.0867 49.9096 63.4242 49.7287C62.7617 49.5479 62.2327 49.3192 61.8373 49.0427L62.6067 47.5269C62.9914 47.7822 63.4509 47.9896 63.9852 48.1491C64.5302 48.2981 65.0645 48.3725 65.5881 48.3725C66.7849 48.3725 67.3833 48.0587 67.3833 47.4311C67.3833 47.1333 67.2284 46.9259 66.9185 46.8089C66.6193 46.6918 66.1331 46.5802 65.4598 46.4738C64.7546 46.3674 64.1775 46.2451 63.7287 46.1068C63.2906 45.9685 62.9059 45.7292 62.5747 45.3888C62.2541 45.0378 62.0938 44.5538 62.0938 43.9368C62.0938 43.1284 62.4304 42.4849 63.1036 42.0062C63.7875 41.5169 64.7065 41.2722 65.8606 41.2722C66.4483 41.2722 67.036 41.3414 67.6237 41.4797C68.2115 41.6073 68.6923 41.7828 69.0663 42.0062L68.2969 43.522C67.5703 43.0965 66.7528 42.8838 65.8445 42.8838C65.2568 42.8838 64.808 42.9742 64.4981 43.155C64.1989 43.3252 64.0493 43.5539 64.0493 43.8411C64.0493 44.1602 64.2096 44.3889 64.5302 44.5272C64.8614 44.6548 65.369 44.7772 66.0529 44.8942C66.7368 45.0005 67.2978 45.1229 67.7359 45.2612C68.1741 45.3994 68.5481 45.6335 68.858 45.9632C69.1785 46.293 69.3388 46.761 69.3388 47.3673C69.3388 48.1651 68.9915 48.8033 68.2969 49.282C67.6024 49.7607 66.6567 50 65.4598 50Z" fill="white"/>
<path d="M52.3827 38.5598C53.3872 38.5598 54.2634 38.7565 55.0114 39.1501C55.7595 39.5437 56.3365 40.1287 56.7425 40.9052C57.1593 41.6711 57.3677 42.6019 57.3677 43.6975V49.8883H55.2839V47.0163H49.4495V49.8883H47.3978V43.6975C47.3978 42.6019 47.6008 41.6711 48.0069 40.9052C48.4236 40.1287 49.006 39.5437 49.754 39.1501C50.502 38.7565 51.3782 38.5598 52.3827 38.5598ZM55.2839 45.2771V43.506C55.2839 42.4742 55.0275 41.6977 54.5145 41.1765C54.0016 40.6446 53.2857 40.3787 52.3667 40.3787C51.4477 40.3787 50.7318 40.6446 50.2188 41.1765C49.7059 41.6977 49.4495 42.4742 49.4495 43.506V45.2771H55.2839Z" fill="white"/>
<defs>
<linearGradient id="paint0_linear_392_55" x1="20.1879" y1="0" x2="20.1879" y2="49.8028" gradientUnits="userSpaceOnUse">
<stop stop-color="#20B4E2"/>
<stop offset="1" stop-color="#0050EC"/>
</linearGradient>
</defs>
</svg>
