<svg width="411" height="140" viewBox="0 0 411 140" fill="none" xmlns="http://www.w3.org/2000/svg">
<g clip-path="url(#clip0_390_2)">
<path fill-rule="evenodd" clip-rule="evenodd" d="M43.2031 88.382C19.3426 88.382 0 68.5969 0 44.191C0 19.785 19.3426 0 43.2031 0H102.279C109.055 0 113.442 7.31881 110.368 13.4953L94.9998 44.3765L112.416 90.7956C113.204 93.1088 113.635 95.6109 113.635 98.2229C113.635 110.015 104.857 119.576 94.0299 119.576H64.623L55.2788 136.264C53.9848 138.575 51.581 140 48.9778 140H12.4284C6.35131 140 2.50046 133.334 5.43232 127.889L24.5059 92.4668L30.0424 94.045L35.5789 95.6235L20.465 123.141C19.1054 125.617 20.8543 128.674 23.6302 128.674H46.2889L55.638 111.825C56.9278 109.5 59.3397 108.064 61.9529 108.064H93.6668C98.479 108.064 102.38 103.658 102.38 98.2229C102.38 92.7878 98.479 88.382 93.6668 88.382H43.2031ZM10.8915 44.3765C10.8915 62.3224 25.0327 76.8702 42.4768 76.8702L94.9998 76.8957L85.6799 50.1326H59.9032L49.7378 69.0714H36.8495L52.1846 40.1405C52.8021 38.9753 53.9942 38.2494 55.2903 38.2494H85.6799L98.5682 11.8833H42.4768C25.0327 11.8833 10.8915 26.4311 10.8915 44.3765Z" fill="white"/>
<path d="M160.856 83.96C155.672 83.96 150.648 83.224 145.784 81.752C140.984 80.28 137.176 78.328 134.36 75.896L138.68 66.2C141.432 68.376 144.792 70.168 148.76 71.576C152.792 72.92 156.824 73.592 160.856 73.592C165.848 73.592 169.56 72.792 171.992 71.192C174.488 69.592 175.736 67.48 175.736 64.856C175.736 62.936 175.032 61.368 173.624 60.152C172.28 58.872 170.552 57.88 168.44 57.176C166.328 56.472 163.448 55.672 159.8 54.776C154.68 53.56 150.52 52.344 147.32 51.128C144.184 49.912 141.464 48.024 139.16 45.464C136.92 42.84 135.8 39.32 135.8 34.904C135.8 31.192 136.792 27.832 138.776 24.824C140.824 21.752 143.864 19.32 147.896 17.528C151.992 15.736 156.984 14.84 162.872 14.84C166.968 14.84 171 15.352 174.968 16.376C178.936 17.4 182.36 18.872 185.24 20.792L181.304 30.488C178.36 28.76 175.288 27.448 172.088 26.552C168.888 25.656 165.784 25.208 162.776 25.208C157.848 25.208 154.168 26.04 151.736 27.704C149.368 29.368 148.184 31.576 148.184 34.328C148.184 36.248 148.856 37.816 150.2 39.032C151.608 40.248 153.368 41.208 155.48 41.912C157.592 42.616 160.472 43.416 164.12 44.312C169.112 45.464 173.208 46.68 176.408 47.96C179.608 49.176 182.328 51.064 184.568 53.624C186.872 56.184 188.024 59.64 188.024 63.992C188.024 67.704 187 71.064 184.952 74.072C182.968 77.08 179.928 79.48 175.832 81.272C171.736 83.064 166.744 83.96 160.856 83.96ZM228.047 80.216C226.639 81.368 224.911 82.232 222.863 82.808C220.879 83.384 218.767 83.672 216.527 83.672C210.895 83.672 206.543 82.2 203.471 79.256C200.399 76.312 198.863 72.024 198.863 66.392V20.408H210.863V32.12H224.591V41.72H210.863V66.104C210.863 68.6 211.471 70.52 212.687 71.864C213.967 73.144 215.727 73.784 217.967 73.784C220.655 73.784 222.895 73.08 224.687 71.672L228.047 80.216ZM260.662 73.496C266.23 73.496 270.87 71.64 274.582 67.928L280.918 75.32C278.678 78.072 275.798 80.152 272.278 81.56C268.758 82.968 264.79 83.672 260.374 83.672C254.742 83.672 249.782 82.552 245.494 80.312C241.206 78.072 237.878 74.968 235.51 71C233.206 66.968 232.054 62.424 232.054 57.368C232.054 52.376 233.174 47.896 235.414 43.928C237.718 39.896 240.854 36.76 244.822 34.52C248.854 32.28 253.398 31.16 258.454 31.16C263.254 31.16 267.606 32.216 271.51 34.328C275.478 36.376 278.614 39.352 280.918 43.256C283.222 47.096 284.374 51.608 284.374 56.792L245.11 64.472C246.326 67.416 248.278 69.656 250.966 71.192C253.654 72.728 256.886 73.496 260.662 73.496ZM258.454 40.76C254.038 40.76 250.454 42.2 247.702 45.08C245.014 47.96 243.67 51.832 243.67 56.696V56.792L272.662 51.224C271.83 48.088 270.134 45.56 267.574 43.64C265.078 41.72 262.038 40.76 258.454 40.76ZM346.111 11.768V83H334.591V76.376C332.607 78.808 330.143 80.632 327.199 81.848C324.319 83.064 321.119 83.672 317.599 83.672C312.671 83.672 308.223 82.584 304.255 80.408C300.351 78.232 297.279 75.16 295.039 71.192C292.799 67.16 291.679 62.552 291.679 57.368C291.679 52.184 292.799 47.608 295.039 43.64C297.279 39.672 300.351 36.6 304.255 34.424C308.223 32.248 312.671 31.16 317.599 31.16C320.991 31.16 324.095 31.736 326.911 32.888C329.727 34.04 332.127 35.768 334.111 38.072V11.768H346.111ZM319.039 73.4C321.919 73.4 324.511 72.76 326.815 71.48C329.119 70.136 330.943 68.248 332.287 65.816C333.631 63.384 334.303 60.568 334.303 57.368C334.303 54.168 333.631 51.352 332.287 48.92C330.943 46.488 329.119 44.632 326.815 43.352C324.511 42.008 321.919 41.336 319.039 41.336C316.159 41.336 313.567 42.008 311.263 43.352C308.959 44.632 307.135 46.488 305.791 48.92C304.447 51.352 303.775 54.168 303.775 57.368C303.775 60.568 304.447 63.384 305.791 65.816C307.135 68.248 308.959 70.136 311.263 71.48C313.567 72.76 316.159 73.4 319.039 73.4ZM411.442 31.736V83H400.018V76.472C398.098 78.776 395.698 80.568 392.818 81.848C389.938 83.064 386.834 83.672 383.506 83.672C376.658 83.672 371.25 81.784 367.282 78.008C363.378 74.168 361.426 68.504 361.426 61.016V31.736H373.426V59.384C373.426 63.992 374.45 67.448 376.498 69.752C378.61 71.992 381.586 73.112 385.426 73.112C389.714 73.112 393.106 71.8 395.602 69.176C398.162 66.488 399.442 62.648 399.442 57.656V31.736H411.442Z" fill="white"/>
<path d="M142.172 94.12C143.927 94.12 145.457 94.4653 146.764 95.156C148.071 95.8467 149.079 96.8733 149.788 98.236C150.516 99.58 150.88 101.213 150.88 103.136V114H147.24V108.96H137.048V114H133.464V103.136C133.464 101.213 133.819 99.58 134.528 98.236C135.256 96.8733 136.273 95.8467 137.58 95.156C138.887 94.4653 140.417 94.12 142.172 94.12ZM147.24 105.908V102.8C147.24 100.989 146.792 99.6267 145.896 98.712C145 97.7787 143.749 97.312 142.144 97.312C140.539 97.312 139.288 97.7787 138.392 98.712C137.496 99.6267 137.048 100.989 137.048 102.8V105.908H147.24ZM165.016 114.196C163.803 114.196 162.617 114.037 161.46 113.72C160.303 113.403 159.379 113.001 158.688 112.516L160.032 109.856C160.704 110.304 161.507 110.668 162.44 110.948C163.392 111.209 164.325 111.34 165.24 111.34C167.331 111.34 168.376 110.789 168.376 109.688C168.376 109.165 168.105 108.801 167.564 108.596C167.041 108.391 166.192 108.195 165.016 108.008C163.784 107.821 162.776 107.607 161.992 107.364C161.227 107.121 160.555 106.701 159.976 106.104C159.416 105.488 159.136 104.639 159.136 103.556C159.136 102.137 159.724 101.008 160.9 100.168C162.095 99.3093 163.7 98.88 165.716 98.88C166.743 98.88 167.769 99.0013 168.796 99.244C169.823 99.468 170.663 99.776 171.316 100.168L169.972 102.828C168.703 102.081 167.275 101.708 165.688 101.708C164.661 101.708 163.877 101.867 163.336 102.184C162.813 102.483 162.552 102.884 162.552 103.388C162.552 103.948 162.832 104.349 163.392 104.592C163.971 104.816 164.857 105.031 166.052 105.236C167.247 105.423 168.227 105.637 168.992 105.88C169.757 106.123 170.411 106.533 170.952 107.112C171.512 107.691 171.792 108.512 171.792 109.576C171.792 110.976 171.185 112.096 169.972 112.936C168.759 113.776 167.107 114.196 165.016 114.196ZM184.186 114.196C182.973 114.196 181.787 114.037 180.63 113.72C179.473 113.403 178.549 113.001 177.858 112.516L179.202 109.856C179.874 110.304 180.677 110.668 181.61 110.948C182.562 111.209 183.495 111.34 184.41 111.34C186.501 111.34 187.546 110.789 187.546 109.688C187.546 109.165 187.275 108.801 186.734 108.596C186.211 108.391 185.362 108.195 184.186 108.008C182.954 107.821 181.946 107.607 181.162 107.364C180.397 107.121 179.725 106.701 179.146 106.104C178.586 105.488 178.306 104.639 178.306 103.556C178.306 102.137 178.894 101.008 180.07 100.168C181.265 99.3093 182.87 98.88 184.886 98.88C185.913 98.88 186.939 99.0013 187.966 99.244C188.993 99.468 189.833 99.776 190.486 100.168L189.142 102.828C187.873 102.081 186.445 101.708 184.858 101.708C183.831 101.708 183.047 101.867 182.506 102.184C181.983 102.483 181.722 102.884 181.722 103.388C181.722 103.948 182.002 104.349 182.562 104.592C183.141 104.816 184.027 105.031 185.222 105.236C186.417 105.423 187.397 105.637 188.162 105.88C188.927 106.123 189.581 106.533 190.122 107.112C190.682 107.691 190.962 108.512 190.962 109.576C190.962 110.976 190.355 112.096 189.142 112.936C187.929 113.776 186.277 114.196 184.186 114.196ZM205.456 114.196C203.944 114.196 202.581 113.869 201.368 113.216C200.155 112.563 199.203 111.657 198.512 110.5C197.84 109.324 197.504 107.999 197.504 106.524C197.504 105.049 197.84 103.733 198.512 102.576C199.203 101.419 200.155 100.513 201.368 99.86C202.581 99.2067 203.944 98.88 205.456 98.88C206.987 98.88 208.359 99.2067 209.572 99.86C210.785 100.513 211.728 101.419 212.4 102.576C213.091 103.733 213.436 105.049 213.436 106.524C213.436 107.999 213.091 109.324 212.4 110.5C211.728 111.657 210.785 112.563 209.572 113.216C208.359 113.869 206.987 114.196 205.456 114.196ZM205.456 111.2C206.744 111.2 207.808 110.771 208.648 109.912C209.488 109.053 209.908 107.924 209.908 106.524C209.908 105.124 209.488 103.995 208.648 103.136C207.808 102.277 206.744 101.848 205.456 101.848C204.168 101.848 203.104 102.277 202.264 103.136C201.443 103.995 201.032 105.124 201.032 106.524C201.032 107.924 201.443 109.053 202.264 109.912C203.104 110.771 204.168 111.2 205.456 111.2ZM228.403 114.196C226.854 114.196 225.463 113.869 224.231 113.216C222.999 112.563 222.038 111.657 221.347 110.5C220.656 109.324 220.311 107.999 220.311 106.524C220.311 105.049 220.656 103.733 221.347 102.576C222.038 101.419 222.99 100.513 224.203 99.86C225.435 99.2067 226.835 98.88 228.403 98.88C229.878 98.88 231.166 99.1787 232.267 99.776C233.387 100.373 234.227 101.232 234.787 102.352L232.099 103.92C231.67 103.229 231.128 102.716 230.475 102.38C229.84 102.025 229.14 101.848 228.375 101.848C227.068 101.848 225.986 102.277 225.127 103.136C224.268 103.976 223.839 105.105 223.839 106.524C223.839 107.943 224.259 109.081 225.099 109.94C225.958 110.78 227.05 111.2 228.375 111.2C229.14 111.2 229.84 111.032 230.475 110.696C231.128 110.341 231.67 109.819 232.099 109.128L234.787 110.696C234.208 111.816 233.359 112.684 232.239 113.3C231.138 113.897 229.859 114.196 228.403 114.196ZM242.573 99.048H246.073V114H242.573V99.048ZM244.337 96.584C243.702 96.584 243.17 96.388 242.741 95.996C242.311 95.5853 242.097 95.0813 242.097 94.484C242.097 93.8867 242.311 93.392 242.741 93C243.17 92.5893 243.702 92.384 244.337 92.384C244.971 92.384 245.503 92.58 245.933 92.972C246.362 93.3453 246.577 93.8213 246.577 94.4C246.577 95.016 246.362 95.5387 245.933 95.968C245.522 96.3787 244.99 96.584 244.337 96.584ZM270.042 99.048V114H266.71V112.068C266.132 112.777 265.413 113.309 264.554 113.664C263.714 114.019 262.781 114.196 261.754 114.196C260.298 114.196 258.992 113.879 257.834 113.244C256.696 112.609 255.8 111.713 255.146 110.556C254.512 109.399 254.194 108.055 254.194 106.524C254.194 104.993 254.512 103.659 255.146 102.52C255.8 101.363 256.696 100.467 257.834 99.832C258.992 99.1973 260.298 98.88 261.754 98.88C262.725 98.88 263.612 99.048 264.414 99.384C265.236 99.72 265.945 100.215 266.542 100.868V99.048H270.042ZM262.146 111.2C263.434 111.2 264.498 110.771 265.338 109.912C266.178 109.053 266.598 107.924 266.598 106.524C266.598 105.124 266.178 103.995 265.338 103.136C264.498 102.277 263.434 101.848 262.146 101.848C260.858 101.848 259.794 102.277 258.954 103.136C258.133 103.995 257.722 105.124 257.722 106.524C257.722 107.924 258.133 109.053 258.954 109.912C259.794 110.771 260.858 111.2 262.146 111.2ZM287.782 113.188C287.371 113.524 286.867 113.776 286.27 113.944C285.691 114.112 285.075 114.196 284.422 114.196C282.779 114.196 281.51 113.767 280.614 112.908C279.718 112.049 279.27 110.799 279.27 109.156V95.744H282.77V99.16H286.774V101.96H282.77V109.072C282.77 109.8 282.947 110.36 283.302 110.752C283.675 111.125 284.188 111.312 284.842 111.312C285.626 111.312 286.279 111.107 286.802 110.696L287.782 113.188ZM295.435 99.048H298.935V114H295.435V99.048ZM297.199 96.584C296.564 96.584 296.032 96.388 295.603 95.996C295.173 95.5853 294.959 95.0813 294.959 94.484C294.959 93.8867 295.173 93.392 295.603 93C296.032 92.5893 296.564 92.384 297.199 92.384C297.833 92.384 298.365 92.58 298.795 92.972C299.224 93.3453 299.439 93.8213 299.439 94.4C299.439 95.016 299.224 95.5387 298.795 95.968C298.384 96.3787 297.852 96.584 297.199 96.584ZM315.008 114.196C313.496 114.196 312.134 113.869 310.92 113.216C309.707 112.563 308.755 111.657 308.064 110.5C307.392 109.324 307.056 107.999 307.056 106.524C307.056 105.049 307.392 103.733 308.064 102.576C308.755 101.419 309.707 100.513 310.92 99.86C312.134 99.2067 313.496 98.88 315.008 98.88C316.539 98.88 317.911 99.2067 319.124 99.86C320.338 100.513 321.28 101.419 321.952 102.576C322.643 103.733 322.988 105.049 322.988 106.524C322.988 107.999 322.643 109.324 321.952 110.5C321.28 111.657 320.338 112.563 319.124 113.216C317.911 113.869 316.539 114.196 315.008 114.196ZM315.008 111.2C316.296 111.2 317.36 110.771 318.2 109.912C319.04 109.053 319.46 107.924 319.46 106.524C319.46 105.124 319.04 103.995 318.2 103.136C317.36 102.277 316.296 101.848 315.008 101.848C313.72 101.848 312.656 102.277 311.816 103.136C310.995 103.995 310.584 105.124 310.584 106.524C310.584 107.924 310.995 109.053 311.816 109.912C312.656 110.771 313.72 111.2 315.008 111.2ZM339.579 98.88C341.465 98.88 342.977 99.4307 344.115 100.532C345.254 101.633 345.823 103.267 345.823 105.432V114H342.323V105.88C342.323 104.573 342.015 103.593 341.399 102.94C340.783 102.268 339.906 101.932 338.767 101.932C337.479 101.932 336.462 102.324 335.715 103.108C334.969 103.873 334.595 104.984 334.595 106.44V114H331.095V99.048H334.427V100.98C335.006 100.289 335.734 99.7667 336.611 99.412C337.489 99.0573 338.478 98.88 339.579 98.88Z" fill="white"/>
</g>
<defs>
<clipPath id="clip0_390_2">
<rect width="411" height="140" fill="white"/>
</clipPath>
</defs>
</svg>
